<svg width="20" height="20" viewBox="0 0 20 20" fill="none" xmlns="http://www.w3.org/2000/svg">
<path d="M19.9904 15.7802C20.0328 16.1049 19.9339 16.3872 19.694 16.6271L16.8781 19.4218C16.751 19.5629 16.5852 19.683 16.3806 19.7817C16.1759 19.8805 15.9748 19.944 15.7772 19.9722C15.7631 19.9722 15.7207 19.9759 15.6501 19.9829C15.5796 19.99 15.4879 19.9935 15.3749 19.9935C15.1067 19.9935 14.6726 19.9477 14.0727 19.8559C13.4728 19.7641 12.7389 19.5382 11.8709 19.1784C11.0027 18.8184 10.0182 18.2785 8.91722 17.5587C7.81628 16.8389 6.6447 15.8508 5.40257 14.5945C4.41452 13.6206 3.59585 12.689 2.94655 11.7998C2.29726 10.9105 1.775 10.0883 1.37978 9.33312C0.984525 8.57796 0.688109 7.89338 0.490498 7.27938C0.292887 6.66537 0.158794 6.13606 0.0882191 5.69143C0.0176438 5.24681 -0.0105863 4.89746 0.00352876 4.64339C0.0176438 4.38932 0.0247013 4.24817 0.0247013 4.21994C0.0529315 4.02233 0.116449 3.82119 0.215255 3.61652C0.31406 3.41185 0.434038 3.246 0.575189 3.11896L3.39114 0.303008C3.58875 0.105397 3.81459 0.0065918 4.06867 0.0065918C4.25216 0.0065918 4.41448 0.0595233 4.55563 0.165386C4.69679 0.271249 4.81676 0.401813 4.91557 0.557079L7.18104 4.85511C7.30807 5.08096 7.34336 5.32797 7.2869 5.59615C7.23044 5.86434 7.11046 6.09018 6.92696 6.27368L5.88951 7.31113C5.86128 7.33936 5.83658 7.38524 5.8154 7.44876C5.79423 7.51227 5.78364 7.56521 5.78364 7.60755C5.8401 7.90397 5.96714 8.24273 6.16475 8.62383C6.33413 8.9626 6.59526 9.37546 6.94814 9.86243C7.30101 10.3494 7.8021 10.9104 8.45139 11.5456C9.08657 12.195 9.65117 12.6995 10.1452 13.0595C10.6391 13.4193 11.0521 13.6841 11.3838 13.8535C11.7155 14.0228 11.9696 14.1252 12.146 14.1604L12.4106 14.2133C12.4388 14.2133 12.4848 14.2027 12.5483 14.1816C12.6118 14.1604 12.6576 14.1357 12.6859 14.1074L13.8927 12.8794C14.1469 12.6536 14.4432 12.5407 14.782 12.5407C15.022 12.5407 15.2125 12.583 15.3536 12.6677H15.3748L19.461 15.0814C19.7576 15.265 19.934 15.4979 19.9904 15.7802Z" fill="#F38504"/>
</svg>
