<svg width="20" height="20" viewBox="0 0 20 20" fill="none" xmlns="http://www.w3.org/2000/svg">
<g clip-path="url(#clip0)">
<path d="M10.0017 12.8571L7.52741 10.6914L0.453125 16.7557C0.710268 16.9943 1.05741 17.1428 1.44027 17.1428H18.5631C18.9446 17.1428 19.2903 16.9943 19.546 16.7557L12.476 10.6914L10.0017 12.8571Z" fill="#F38504"/>
<path d="M19.5474 3.24432C19.2903 3.00432 18.9446 2.85718 18.5603 2.85718H1.43741C1.05598 2.85718 0.710268 3.00575 0.453125 3.24718L9.99884 11.4286L19.5474 3.24432Z" fill="#F38504"/>
<path d="M0 4.11145V15.98L6.90429 10.1129L0 4.11145Z" fill="#F38504"/>
<path d="M13.0977 10.1129L20.0019 15.98V4.10718L13.0977 10.1129Z" fill="#F38504"/>
</g>
<defs>
<clipPath id="clip0">
<rect width="20" height="20" fill="white"/>
</clipPath>
</defs>
</svg>
