<svg width="861" height="107" viewBox="0 0 861 107" fill="none" xmlns="http://www.w3.org/2000/svg">
<path d="M113.376 4.928C109.92 5.11999 107.376 5.50399 105.744 6.08C104.208 6.656 103.152 7.76 102.576 9.392C102 11.024 101.712 13.664 101.712 17.312V88.736C101.712 92.384 102 95.024 102.576 96.656C103.152 98.288 104.208 99.392 105.744 99.968C107.376 100.544 109.92 100.928 113.376 101.12V104C108.96 103.712 102.864 103.568 95.088 103.568C86.832 103.568 80.688 103.712 76.656 104V101.12C80.112 100.928 82.608 100.544 84.144 99.968C85.776 99.392 86.88 98.288 87.456 96.656C88.032 95.024 88.32 92.384 88.32 88.736V11.552L53.616 104.72H51.312L15.024 11.264V87.296C15.024 91.04 15.312 93.824 15.888 95.648C16.56 97.472 17.808 98.816 19.632 99.68C21.456 100.448 24.288 100.928 28.128 101.12V104C24.672 103.712 19.776 103.568 13.44 103.568C7.68 103.568 3.216 103.712 0.0480005 104V101.12C3.408 100.928 5.904 100.448 7.536 99.68C9.168 98.816 10.272 97.472 10.848 95.648C11.424 93.728 11.712 90.944 11.712 87.296V17.312C11.712 13.664 11.424 11.024 10.848 9.392C10.272 7.76 9.168 6.656 7.536 6.08C6 5.50399 3.504 5.11999 0.0480005 4.928V2.048C3.216 2.336 7.68 2.47999 13.44 2.47999C18.432 2.47999 22.512 2.336 25.68 2.048L57.36 85.424L88.32 2.47999H95.088C102.864 2.47999 108.96 2.336 113.376 2.048V4.928ZM162.206 4.928C158.75 5.11999 156.206 5.50399 154.574 6.08C153.038 6.656 151.982 7.76 151.406 9.392C150.83 11.024 150.542 13.664 150.542 17.312V88.736C150.542 92.384 150.83 95.024 151.406 96.656C151.982 98.288 153.038 99.392 154.574 99.968C156.206 100.544 158.75 100.928 162.206 101.12V104C157.79 103.712 151.694 103.568 143.918 103.568C135.662 103.568 129.518 103.712 125.486 104V101.12C128.942 100.928 131.438 100.544 132.974 99.968C134.606 99.392 135.71 98.288 136.286 96.656C136.862 95.024 137.15 92.384 137.15 88.736V17.312C137.15 13.664 136.862 11.024 136.286 9.392C135.71 7.76 134.606 6.656 132.974 6.08C131.438 5.50399 128.942 5.11999 125.486 4.928V2.048C129.518 2.336 135.662 2.47999 143.918 2.47999C151.598 2.47999 157.694 2.336 162.206 2.048V4.928ZM211.002 4.928C207.546 5.11999 205.002 5.50399 203.37 6.08C201.834 6.656 200.778 7.76 200.202 9.392C199.626 11.024 199.338 13.664 199.338 17.312V88.736C199.338 92.384 199.626 95.024 200.202 96.656C200.778 98.288 201.834 99.392 203.37 99.968C205.002 100.448 207.546 100.688 211.002 100.688H221.514C227.466 100.688 231.978 99.872 235.05 98.24C238.218 96.512 240.522 93.776 241.962 90.032C243.402 86.288 244.458 80.864 245.13 73.76H248.442C248.154 76.736 248.01 80.672 248.01 85.568C248.01 91.04 248.346 97.184 249.018 104C242.49 103.712 231.498 103.568 216.042 103.568C197.61 103.568 183.69 103.712 174.282 104V101.12C177.738 100.928 180.234 100.544 181.77 99.968C183.402 99.392 184.506 98.288 185.082 96.656C185.658 95.024 185.946 92.384 185.946 88.736V17.312C185.946 13.664 185.658 11.024 185.082 9.392C184.506 7.76 183.402 6.656 181.77 6.08C180.234 5.50399 177.738 5.11999 174.282 4.928V2.048C178.314 2.336 184.458 2.47999 192.714 2.47999C200.394 2.47999 206.49 2.336 211.002 2.048V4.928ZM295.659 4.928C292.203 5.11999 289.659 5.50399 288.027 6.08C286.491 6.656 285.435 7.76 284.859 9.392C284.283 11.024 283.995 13.664 283.995 17.312V88.736C283.995 92.384 284.283 95.024 284.859 96.656C285.435 98.288 286.491 99.392 288.027 99.968C289.659 100.448 292.203 100.688 295.659 100.688H306.171C312.123 100.688 316.635 99.872 319.707 98.24C322.875 96.512 325.179 93.776 326.619 90.032C328.059 86.288 329.115 80.864 329.787 73.76H333.099C332.811 76.736 332.667 80.672 332.667 85.568C332.667 91.04 333.003 97.184 333.675 104C327.147 103.712 316.155 103.568 300.699 103.568C282.267 103.568 268.347 103.712 258.939 104V101.12C262.395 100.928 264.891 100.544 266.427 99.968C268.059 99.392 269.163 98.288 269.739 96.656C270.315 95.024 270.603 92.384 270.603 88.736V17.312C270.603 13.664 270.315 11.024 269.739 9.392C269.163 7.76 268.059 6.656 266.427 6.08C264.891 5.50399 262.395 5.11999 258.939 4.928V2.048C262.971 2.336 269.115 2.47999 277.371 2.47999C285.051 2.47999 291.147 2.336 295.659 2.048V4.928ZM488.433 2.47999C492.753 2.47999 496.353 2.336 499.233 2.048V4.928C493.857 6.176 490.065 10.352 487.857 17.456L460.641 104.72H459.489H458.337L433.281 30.56L410.385 104.72H409.233H408.081L377.553 14.144C375.537 8.19199 372.225 5.11999 367.617 4.928V2.048C371.553 2.336 376.689 2.47999 383.025 2.47999C389.937 2.47999 395.121 2.336 398.577 2.048V4.928C395.985 5.11999 394.161 5.59999 393.105 6.368C392.049 7.136 391.521 8.336 391.521 9.96799C391.521 11.504 392.049 13.856 393.105 17.024L414.129 81.248L431.697 25.52L427.809 14.144C425.889 8.19199 423.057 5.11999 419.313 4.928V2.048C422.769 2.336 427.425 2.47999 433.281 2.47999C441.537 2.47999 447.681 2.336 451.713 2.048V4.928C448.065 5.11999 445.521 5.55199 444.081 6.224C442.641 6.8 441.921 8.096 441.921 10.112C441.921 11.84 442.401 14.144 443.361 17.024L464.097 81.104L481.809 25.376C483.345 20.672 484.113 16.784 484.113 13.712C484.113 10.544 483.153 8.336 481.233 7.08799C479.313 5.74399 476.193 5.024 471.873 4.928V2.048C477.345 2.336 482.865 2.47999 488.433 2.47999ZM550.299 0.031991C559.419 0.031991 567.387 2.09599 574.203 6.224C581.115 10.352 586.443 16.352 590.187 24.224C594.027 32 595.947 41.312 595.947 52.16C595.947 62.72 593.979 72.08 590.043 80.24C586.203 88.4 580.779 94.736 573.771 99.248C566.859 103.76 558.987 106.016 550.155 106.016C541.035 106.016 533.019 103.952 526.107 99.824C519.291 95.696 513.963 89.744 510.123 81.968C506.379 74.096 504.507 64.736 504.507 53.888C504.507 43.328 506.427 33.968 510.267 25.808C514.203 17.648 519.627 11.312 526.539 6.8C533.547 2.28799 541.467 0.031991 550.299 0.031991ZM549.723 2.62399C543.579 2.62399 538.155 4.78399 533.451 9.10399C528.843 13.328 525.243 19.28 522.651 26.96C520.155 34.64 518.907 43.424 518.907 53.312C518.907 63.296 520.299 72.08 523.083 79.664C525.963 87.248 529.803 93.104 534.603 97.232C539.403 101.36 544.779 103.424 550.731 103.424C556.875 103.424 562.251 101.312 566.859 97.088C571.563 92.768 575.163 86.768 577.659 79.088C580.251 71.408 581.547 62.624 581.547 52.736C581.547 42.752 580.107 33.968 577.227 26.384C574.443 18.8 570.651 12.944 565.851 8.816C561.051 4.68799 555.675 2.62399 549.723 2.62399ZM697.524 96.8C695.316 100.064 693.108 102.416 690.9 103.856C688.692 105.296 685.764 106.016 682.116 106.016C678.18 106.016 674.916 104.864 672.324 102.56C669.828 100.256 667.956 96.224 666.708 90.464L663.54 76.064C662.388 71.072 661.284 67.232 660.228 64.544C659.268 61.856 657.78 59.696 655.764 58.064C653.748 56.432 650.916 55.616 647.268 55.616H633.588V88.736C633.588 92.384 633.876 95.024 634.452 96.656C635.028 98.288 636.084 99.392 637.62 99.968C639.252 100.544 641.796 100.928 645.252 101.12V104C640.836 103.712 634.74 103.568 626.964 103.568C618.708 103.568 612.564 103.712 608.532 104V101.12C611.988 100.928 614.484 100.544 616.02 99.968C617.652 99.392 618.756 98.288 619.332 96.656C619.908 95.024 620.196 92.384 620.196 88.736V17.312C620.196 13.664 619.908 11.024 619.332 9.392C618.756 7.76 617.652 6.656 616.02 6.08C614.484 5.50399 611.988 5.11999 608.532 4.928V2.048C612.564 2.336 618.42 2.47999 626.1 2.47999L641.652 2.336C643.476 2.24 645.54 2.192 647.844 2.192C658.98 2.192 667.524 4.544 673.476 9.24799C679.524 13.856 682.548 19.856 682.548 27.248C682.548 30.992 681.636 34.784 679.812 38.624C678.084 42.368 675.108 45.776 670.884 48.848C666.756 51.824 661.332 53.84 654.612 54.896L656.34 55.184C662.676 56.24 667.284 58.16 670.164 60.944C673.044 63.728 675.156 68.144 676.5 74.192L680.1 88.88C681.06 93.296 682.068 96.368 683.124 98.096C684.18 99.824 685.62 100.688 687.444 100.688C689.076 100.688 690.42 100.256 691.476 99.392C692.628 98.528 693.924 97.136 695.364 95.216L697.524 96.8ZM644.244 4.928C641.268 4.928 639.012 5.264 637.476 5.93599C636.036 6.608 635.028 7.808 634.452 9.536C633.876 11.264 633.588 13.856 633.588 17.312V52.736H643.236C652.74 52.736 659.268 50.624 662.82 46.4C666.372 42.176 668.148 36.32 668.148 28.832C668.148 20.96 666.276 15.008 662.532 10.976C658.788 6.944 652.692 4.928 644.244 4.928ZM777.363 92.336C778.995 94.736 780.771 96.656 782.691 98.096C784.707 99.44 787.155 100.448 790.035 101.12V104C785.427 103.712 779.667 103.568 772.755 103.568C767.571 103.568 762.627 103.712 757.923 104V101.12C760.227 101.024 761.907 100.736 762.963 100.256C764.019 99.776 764.547 99.056 764.547 98.096C764.547 97.136 764.067 95.984 763.107 94.64L742.083 62.96C739.299 58.736 736.947 56 735.027 54.752C733.107 53.408 730.419 52.64 726.963 52.448V88.736C726.963 92.384 727.251 95.024 727.827 96.656C728.403 98.288 729.459 99.392 730.995 99.968C732.627 100.544 735.171 100.928 738.627 101.12V104C734.211 103.712 728.115 103.568 720.339 103.568C712.083 103.568 705.939 103.712 701.907 104V101.12C705.363 100.928 707.859 100.544 709.395 99.968C711.027 99.392 712.131 98.288 712.707 96.656C713.283 95.024 713.571 92.384 713.571 88.736V17.312C713.571 13.664 713.283 11.024 712.707 9.392C712.131 7.76 711.027 6.656 709.395 6.08C707.859 5.50399 705.363 5.11999 701.907 4.928V2.048C705.939 2.336 712.083 2.47999 720.339 2.47999C728.019 2.47999 734.115 2.336 738.627 2.048V4.928C735.171 5.11999 732.627 5.50399 730.995 6.08C729.459 6.656 728.403 7.76 727.827 9.392C727.251 11.024 726.963 13.664 726.963 17.312V49.568C733.971 49.28 739.443 46.592 743.379 41.504L757.203 23.936C762.099 17.888 764.547 13.28 764.547 10.112C764.547 6.752 761.571 5.024 755.619 4.928V2.048C761.091 2.336 766.611 2.47999 772.179 2.47999C777.459 2.47999 781.539 2.336 784.419 2.048V4.928C781.251 5.408 778.275 6.464 775.491 8.096C772.707 9.632 770.019 12.08 767.427 15.44L743.955 45.536L777.363 92.336ZM827.083 0.463994C831.307 0.463994 834.619 0.943994 837.019 1.90399C839.515 2.76799 842.059 4.06399 844.651 5.79199C846.763 7.13599 848.395 7.80799 849.547 7.80799C850.411 7.80799 851.083 7.32799 851.563 6.368C852.043 5.312 852.427 3.68 852.715 1.472H856.027C855.547 7.04 855.307 16.832 855.307 30.848H851.995C851.419 23.072 849.163 16.544 845.227 11.264C841.387 5.88799 835.771 3.19999 828.379 3.19999C823.195 3.19999 818.971 4.78399 815.707 7.95199C812.443 11.024 810.811 15.008 810.811 19.904C810.811 23.552 811.627 26.72 813.259 29.408C814.987 32.096 817.147 34.4 819.739 36.32C822.331 38.24 826.027 40.688 830.827 43.664L835.003 46.256C841.051 50 845.803 53.312 849.259 56.192C852.811 58.976 855.643 62.192 857.755 65.84C859.867 69.488 860.923 73.76 860.923 78.656C860.923 87.392 858.043 94.16 852.283 98.96C846.523 103.664 839.227 106.016 830.395 106.016C825.787 106.016 821.995 105.536 819.019 104.576C816.139 103.616 813.355 102.32 810.667 100.688C808.555 99.344 806.923 98.672 805.771 98.672C804.907 98.672 804.235 99.2 803.755 100.256C803.275 101.216 802.891 102.8 802.603 105.008H799.291C799.675 99.728 799.867 88.208 799.867 70.448H803.179C803.851 80.144 806.251 88.016 810.379 94.064C814.507 100.112 820.843 103.136 829.387 103.136C834.571 103.136 838.987 101.552 842.635 98.384C846.283 95.12 848.107 90.32 848.107 83.984C848.107 78.608 846.283 74.048 842.635 70.304C839.083 66.56 833.419 62.336 825.643 57.632C819.979 54.176 815.371 51.104 811.819 48.416C808.363 45.728 805.531 42.512 803.323 38.768C801.115 34.928 800.011 30.464 800.011 25.376C800.011 17.312 802.603 11.168 807.787 6.944C812.971 2.62399 819.403 0.463994 827.083 0.463994Z" fill="#EEE9E1"/>
</svg>
