<svg width="777" height="107" viewBox="0 0 777 107" fill="none" xmlns="http://www.w3.org/2000/svg">
<path d="M121.808 2.47999C126.128 2.47999 129.728 2.336 132.608 2.048V4.928C127.232 6.176 123.44 10.352 121.232 17.456L94.016 104.72H92.864H91.712L66.656 30.56L43.76 104.72H42.608H41.456L10.928 14.144C8.912 8.19199 5.6 5.11999 0.992 4.928V2.048C4.928 2.336 10.064 2.47999 16.4 2.47999C23.312 2.47999 28.496 2.336 31.952 2.048V4.928C29.36 5.11999 27.536 5.59999 26.48 6.368C25.424 7.136 24.896 8.336 24.896 9.96799C24.896 11.504 25.424 13.856 26.48 17.024L47.504 81.248L65.072 25.52L61.184 14.144C59.264 8.19199 56.432 5.11999 52.688 4.928V2.048C56.144 2.336 60.8 2.47999 66.656 2.47999C74.912 2.47999 81.056 2.336 85.088 2.048V4.928C81.44 5.11999 78.896 5.55199 77.456 6.224C76.016 6.8 75.296 8.096 75.296 10.112C75.296 11.84 75.776 14.144 76.736 17.024L97.472 81.104L115.184 25.376C116.72 20.672 117.488 16.784 117.488 13.712C117.488 10.544 116.528 8.336 114.608 7.08799C112.688 5.74399 109.568 5.024 105.248 4.928V2.048C110.72 2.336 116.24 2.47999 121.808 2.47999ZM205.851 91.904C208.155 97.856 211.467 100.928 215.787 101.12V104C211.947 103.712 206.811 103.568 200.379 103.568C192.123 103.568 185.979 103.712 181.947 104V101.12C185.595 100.928 188.187 100.496 189.723 99.824C191.355 99.056 192.171 97.712 192.171 95.792C192.171 94.16 191.595 91.904 190.443 89.024L181.659 65.408H146.811L140.907 80.672C138.987 85.856 138.027 89.792 138.027 92.48C138.027 95.456 139.035 97.616 141.051 98.96C143.163 100.304 146.331 101.024 150.555 101.12V104C145.083 103.712 139.563 103.568 133.995 103.568C129.675 103.568 126.075 103.712 123.195 104V101.12C127.995 99.968 131.787 95.792 134.571 88.592L168.411 1.32799H170.715L205.851 91.904ZM180.507 62.528L164.379 19.472L147.963 62.528H180.507ZM307.134 96.8C304.926 100.064 302.718 102.416 300.51 103.856C298.302 105.296 295.374 106.016 291.726 106.016C287.79 106.016 284.526 104.864 281.934 102.56C279.438 100.256 277.566 96.224 276.318 90.464L273.15 76.064C271.998 71.072 270.894 67.232 269.838 64.544C268.878 61.856 267.39 59.696 265.374 58.064C263.358 56.432 260.526 55.616 256.878 55.616H243.198V88.736C243.198 92.384 243.486 95.024 244.062 96.656C244.638 98.288 245.694 99.392 247.23 99.968C248.862 100.544 251.406 100.928 254.862 101.12V104C250.446 103.712 244.35 103.568 236.574 103.568C228.318 103.568 222.174 103.712 218.142 104V101.12C221.598 100.928 224.094 100.544 225.63 99.968C227.262 99.392 228.366 98.288 228.942 96.656C229.518 95.024 229.806 92.384 229.806 88.736V17.312C229.806 13.664 229.518 11.024 228.942 9.392C228.366 7.76 227.262 6.656 225.63 6.08C224.094 5.50399 221.598 5.11999 218.142 4.928V2.048C222.174 2.336 228.03 2.47999 235.71 2.47999L251.262 2.336C253.086 2.24 255.15 2.192 257.454 2.192C268.59 2.192 277.134 4.544 283.086 9.24799C289.134 13.856 292.158 19.856 292.158 27.248C292.158 30.992 291.246 34.784 289.422 38.624C287.694 42.368 284.718 45.776 280.494 48.848C276.366 51.824 270.942 53.84 264.222 54.896L265.95 55.184C272.286 56.24 276.894 58.16 279.774 60.944C282.654 63.728 284.766 68.144 286.11 74.192L289.71 88.88C290.67 93.296 291.678 96.368 292.734 98.096C293.79 99.824 295.23 100.688 297.054 100.688C298.686 100.688 300.03 100.256 301.086 99.392C302.238 98.528 303.534 97.136 304.974 95.216L307.134 96.8ZM253.854 4.928C250.878 4.928 248.622 5.264 247.086 5.93599C245.646 6.608 244.638 7.808 244.062 9.536C243.486 11.264 243.198 13.856 243.198 17.312V52.736H252.846C262.35 52.736 268.878 50.624 272.43 46.4C275.982 42.176 277.758 36.32 277.758 28.832C277.758 20.96 275.886 15.008 272.142 10.976C268.398 6.944 262.302 4.928 253.854 4.928ZM350.829 2.048C367.821 2.048 380.541 6.32 388.989 14.864C397.437 23.312 401.661 35.648 401.661 51.872C401.661 62.336 399.597 71.504 395.469 79.376C391.341 87.248 385.341 93.344 377.469 97.664C369.693 101.888 360.381 104 349.533 104L341.181 103.856C335.805 103.664 331.869 103.568 329.373 103.568C321.501 103.568 315.549 103.712 311.517 104V101.12C314.973 100.928 317.469 100.544 319.005 99.968C320.637 99.392 321.741 98.288 322.317 96.656C322.893 95.024 323.181 92.384 323.181 88.736V17.312C323.181 13.664 322.893 11.024 322.317 9.392C321.741 7.76 320.637 6.656 319.005 6.08C317.469 5.50399 314.973 5.11999 311.517 4.928V2.048C314.877 2.336 319.533 2.47999 325.485 2.47999L337.725 2.336C344.253 2.144 348.621 2.048 350.829 2.048ZM347.229 4.63999C344.253 4.63999 341.997 4.97599 340.461 5.648C339.021 6.31999 338.013 7.51999 337.437 9.24799C336.861 10.976 336.573 13.568 336.573 17.024V89.024C336.573 92.48 336.861 95.072 337.437 96.8C338.013 98.528 339.021 99.728 340.461 100.4C341.997 101.072 344.301 101.408 347.373 101.408C357.549 101.408 365.565 99.584 371.421 95.936C377.277 92.192 381.357 86.768 383.661 79.664C386.061 72.56 387.261 63.488 387.261 52.448C387.261 41.408 385.965 32.432 383.373 25.52C380.781 18.512 376.557 13.28 370.701 9.82399C364.941 6.36799 357.117 4.63999 347.229 4.63999ZM503.306 96.8C501.098 100.064 498.89 102.416 496.682 103.856C494.474 105.296 491.546 106.016 487.898 106.016C483.962 106.016 480.698 104.864 478.106 102.56C475.61 100.256 473.738 96.224 472.49 90.464L469.322 76.064C468.17 71.072 467.066 67.232 466.01 64.544C465.05 61.856 463.562 59.696 461.546 58.064C459.53 56.432 456.698 55.616 453.05 55.616H439.37V88.736C439.37 92.384 439.658 95.024 440.234 96.656C440.81 98.288 441.866 99.392 443.402 99.968C445.034 100.544 447.578 100.928 451.034 101.12V104C446.618 103.712 440.522 103.568 432.746 103.568C424.49 103.568 418.346 103.712 414.314 104V101.12C417.77 100.928 420.266 100.544 421.802 99.968C423.434 99.392 424.538 98.288 425.114 96.656C425.69 95.024 425.978 92.384 425.978 88.736V17.312C425.978 13.664 425.69 11.024 425.114 9.392C424.538 7.76 423.434 6.656 421.802 6.08C420.266 5.50399 417.77 5.11999 414.314 4.928V2.048C418.346 2.336 424.202 2.47999 431.882 2.47999L447.434 2.336C449.258 2.24 451.322 2.192 453.626 2.192C464.762 2.192 473.306 4.544 479.258 9.24799C485.306 13.856 488.33 19.856 488.33 27.248C488.33 30.992 487.418 34.784 485.594 38.624C483.866 42.368 480.89 45.776 476.666 48.848C472.538 51.824 467.114 53.84 460.394 54.896L462.122 55.184C468.458 56.24 473.066 58.16 475.946 60.944C478.826 63.728 480.938 68.144 482.282 74.192L485.882 88.88C486.842 93.296 487.85 96.368 488.906 98.096C489.962 99.824 491.402 100.688 493.226 100.688C494.858 100.688 496.202 100.256 497.258 99.392C498.41 98.528 499.706 97.136 501.146 95.216L503.306 96.8ZM450.026 4.928C447.05 4.928 444.794 5.264 443.258 5.93599C441.818 6.608 440.81 7.808 440.234 9.536C439.658 11.264 439.37 13.856 439.37 17.312V52.736H449.018C458.522 52.736 465.05 50.624 468.602 46.4C472.154 42.176 473.93 36.32 473.93 28.832C473.93 20.96 472.058 15.008 468.314 10.976C464.57 6.944 458.474 4.928 450.026 4.928ZM555.065 0.031991C564.185 0.031991 572.153 2.09599 578.969 6.224C585.881 10.352 591.209 16.352 594.953 24.224C598.793 32 600.713 41.312 600.713 52.16C600.713 62.72 598.745 72.08 594.809 80.24C590.969 88.4 585.545 94.736 578.537 99.248C571.625 103.76 563.753 106.016 554.921 106.016C545.801 106.016 537.785 103.952 530.873 99.824C524.057 95.696 518.729 89.744 514.889 81.968C511.145 74.096 509.273 64.736 509.273 53.888C509.273 43.328 511.193 33.968 515.033 25.808C518.969 17.648 524.393 11.312 531.305 6.8C538.313 2.28799 546.233 0.031991 555.065 0.031991ZM554.489 2.62399C548.345 2.62399 542.921 4.78399 538.217 9.10399C533.609 13.328 530.009 19.28 527.417 26.96C524.921 34.64 523.673 43.424 523.673 53.312C523.673 63.296 525.065 72.08 527.849 79.664C530.729 87.248 534.569 93.104 539.369 97.232C544.169 101.36 549.545 103.424 555.497 103.424C561.641 103.424 567.017 101.312 571.625 97.088C576.329 92.768 579.929 86.768 582.425 79.088C585.017 71.408 586.313 62.624 586.313 52.736C586.313 42.752 584.873 33.968 581.993 26.384C579.209 18.8 575.417 12.944 570.617 8.816C565.817 4.68799 560.441 2.62399 554.489 2.62399ZM661.106 50.144C671.666 51.584 679.202 54.656 683.714 59.36C688.226 63.968 690.482 69.536 690.482 76.064C690.482 81.536 689.09 86.384 686.306 90.608C683.522 94.832 679.538 98.144 674.354 100.544C669.17 102.848 663.026 104 655.922 104C653.33 104 651.122 103.952 649.298 103.856C643.154 103.664 637.106 103.568 631.154 103.568C623.282 103.568 617.33 103.712 613.298 104V101.12C616.754 100.928 619.25 100.544 620.786 99.968C622.418 99.392 623.522 98.288 624.098 96.656C624.674 95.024 624.962 92.384 624.962 88.736V17.312C624.962 13.664 624.674 11.024 624.098 9.392C623.522 7.76 622.418 6.656 620.786 6.08C619.25 5.50399 616.754 5.11999 613.298 4.928V2.048C617.33 2.336 623.186 2.47999 630.866 2.47999L646.418 2.336C648.242 2.24 650.306 2.192 652.61 2.192C662.402 2.192 669.89 4.256 675.074 8.384C680.354 12.512 682.994 17.984 682.994 24.8C682.994 30.368 681.218 35.36 677.666 39.776C674.21 44.192 668.69 47.552 661.106 49.856V50.144ZM649.01 4.928C646.034 4.928 643.778 5.264 642.242 5.93599C640.802 6.608 639.794 7.808 639.218 9.536C638.642 11.264 638.354 13.856 638.354 17.312V49.856H648.002C655.874 49.856 661.346 47.744 664.418 43.52C667.586 39.2 669.17 33.488 669.17 26.384C669.17 19.184 667.586 13.808 664.418 10.256C661.25 6.704 656.114 4.928 649.01 4.928ZM649.154 100.688C667.106 100.688 676.082 92.288 676.082 75.488C676.082 67.904 674.018 62.144 669.89 58.208C665.858 54.272 659.378 52.304 650.45 52.304H638.354V88.736C638.354 92.192 638.642 94.736 639.218 96.368C639.794 98 640.802 99.152 642.242 99.824C643.778 100.4 646.082 100.688 649.154 100.688ZM775.76 85.568C775.76 91.04 776.096 97.184 776.768 104C770.24 103.712 759.248 103.568 743.792 103.568C725.36 103.568 711.44 103.712 702.032 104V101.12C705.488 100.928 707.984 100.544 709.52 99.968C711.152 99.392 712.256 98.288 712.832 96.656C713.408 95.024 713.696 92.384 713.696 88.736V17.312C713.696 13.664 713.408 11.024 712.832 9.392C712.256 7.76 711.152 6.656 709.52 6.08C707.984 5.50399 705.488 5.11999 702.032 4.928V2.048C711.44 2.336 725.36 2.47999 743.792 2.47999C757.904 2.47999 767.936 2.336 773.888 2.048C773.216 8.384 772.88 14.048 772.88 19.04C772.88 22.784 773.024 25.76 773.312 27.968H770C769.328 21.728 768.464 17.12 767.408 14.144C766.352 11.072 764.576 8.864 762.08 7.52C759.584 6.07999 755.792 5.35999 750.704 5.35999H738.752C735.296 5.35999 732.752 5.64799 731.12 6.224C729.584 6.704 728.528 7.76 727.952 9.392C727.376 11.024 727.088 13.664 727.088 17.312V51.296H736.592C739.952 51.296 742.544 50.528 744.368 48.992C746.192 47.36 747.392 45.488 747.968 43.376C748.64 41.168 749.168 38.432 749.552 35.168L749.984 32.288H753.296C753.008 36.32 752.864 40.832 752.864 45.824V52.736C752.864 57.632 753.152 64.448 753.728 73.184H750.416C750.32 72.512 750.032 70.208 749.552 66.272C749.072 62.24 747.728 59.216 745.52 57.2C743.408 55.184 740.432 54.176 736.592 54.176H727.088V88.736C727.088 92.384 727.376 95.024 727.952 96.656C728.528 98.288 729.584 99.392 731.12 99.968C732.752 100.448 735.296 100.688 738.752 100.688H749.264C755.216 100.688 759.728 99.92 762.8 98.384C765.968 96.752 768.272 94.208 769.712 90.752C771.152 87.2 772.208 82.016 772.88 75.2H776.192C775.904 77.792 775.76 81.248 775.76 85.568Z" fill="#EEE9E1"/>
</svg>
