<svg width="619" height="107" viewBox="0 0 619 107" fill="none" xmlns="http://www.w3.org/2000/svg">
<path d="M75.504 92.336C77.136 94.736 78.912 96.656 80.832 98.096C82.848 99.44 85.296 100.448 88.176 101.12V104C83.568 103.712 77.808 103.568 70.896 103.568C65.712 103.568 60.768 103.712 56.064 104V101.12C58.368 101.024 60.048 100.736 61.104 100.256C62.16 99.776 62.688 99.056 62.688 98.096C62.688 97.136 62.208 95.984 61.248 94.64L40.224 62.96C37.44 58.736 35.088 56 33.168 54.752C31.248 53.408 28.56 52.64 25.104 52.448V88.736C25.104 92.384 25.392 95.024 25.968 96.656C26.544 98.288 27.6 99.392 29.136 99.968C30.768 100.544 33.312 100.928 36.768 101.12V104C32.352 103.712 26.256 103.568 18.48 103.568C10.224 103.568 4.08 103.712 0.0480005 104V101.12C3.504 100.928 6 100.544 7.536 99.968C9.168 99.392 10.272 98.288 10.848 96.656C11.424 95.024 11.712 92.384 11.712 88.736V17.312C11.712 13.664 11.424 11.024 10.848 9.392C10.272 7.76 9.168 6.656 7.536 6.08C6 5.50399 3.504 5.11999 0.0480005 4.928V2.048C4.08 2.336 10.224 2.47999 18.48 2.47999C26.16 2.47999 32.256 2.336 36.768 2.048V4.928C33.312 5.11999 30.768 5.50399 29.136 6.08C27.6 6.656 26.544 7.76 25.968 9.392C25.392 11.024 25.104 13.664 25.104 17.312V49.568C32.112 49.28 37.584 46.592 41.52 41.504L55.344 23.936C60.24 17.888 62.688 13.28 62.688 10.112C62.688 6.752 59.712 5.024 53.76 4.928V2.048C59.232 2.336 64.752 2.47999 70.32 2.47999C75.6 2.47999 79.68 2.336 82.56 2.048V4.928C79.392 5.408 76.416 6.464 73.632 8.096C70.848 9.632 68.16 12.08 65.568 15.44L42.096 45.536L75.504 92.336ZM131.127 4.928C127.671 5.11999 125.127 5.50399 123.495 6.08C121.959 6.656 120.903 7.76 120.327 9.392C119.751 11.024 119.463 13.664 119.463 17.312V88.736C119.463 92.384 119.751 95.024 120.327 96.656C120.903 98.288 121.959 99.392 123.495 99.968C125.127 100.544 127.671 100.928 131.127 101.12V104C126.711 103.712 120.615 103.568 112.839 103.568C104.583 103.568 98.4394 103.712 94.4074 104V101.12C97.8634 100.928 100.359 100.544 101.895 99.968C103.527 99.392 104.631 98.288 105.207 96.656C105.783 95.024 106.071 92.384 106.071 88.736V17.312C106.071 13.664 105.783 11.024 105.207 9.392C104.631 7.76 103.527 6.656 101.895 6.08C100.359 5.50399 97.8634 5.11999 94.4074 4.928V2.048C98.4394 2.336 104.583 2.47999 112.839 2.47999C120.519 2.47999 126.615 2.336 131.127 2.048V4.928ZM222.404 2.048C221.732 8.864 221.396 15.008 221.396 20.48C221.396 25.28 221.54 29.216 221.828 32.288H218.516C217.748 24.896 216.788 19.424 215.636 15.872C214.484 12.224 212.468 9.58399 209.588 7.95199C206.708 6.22399 202.292 5.35999 196.34 5.35999H188.564V87.296C188.564 91.328 188.948 94.256 189.716 96.08C190.484 97.904 191.828 99.152 193.748 99.824C195.668 100.496 198.788 100.928 203.108 101.12V104C198.116 103.712 191.06 103.568 181.94 103.568C172.34 103.568 165.236 103.712 160.628 104V101.12C164.948 100.928 168.068 100.496 169.988 99.824C171.908 99.152 173.252 97.904 174.02 96.08C174.788 94.256 175.172 91.328 175.172 87.296V5.35999H167.396C161.444 5.35999 157.028 6.22399 154.148 7.95199C151.268 9.58399 149.252 12.224 148.1 15.872C146.948 19.424 145.988 24.896 145.22 32.288H141.908C142.196 29.216 142.34 25.28 142.34 20.48C142.34 15.008 142.004 8.864 141.332 2.048C149.3 2.336 162.836 2.47999 181.94 2.47999C200.948 2.47999 214.436 2.336 222.404 2.048ZM280.018 0.031991C285.778 0.031991 290.674 0.847992 294.706 2.47999C298.738 4.112 302.674 6.416 306.514 9.392C307.57 10.256 308.482 10.688 309.25 10.688C311.17 10.688 312.418 7.808 312.994 2.048H316.306C315.922 8.288 315.73 19.328 315.73 35.168H312.418C311.362 28.928 310.402 24.464 309.538 21.776C308.674 18.992 307.234 16.352 305.218 13.856C302.338 10.112 298.642 7.328 294.13 5.504C289.714 3.58399 284.914 2.62399 279.73 2.62399C273.49 2.62399 268.018 4.68799 263.314 8.816C258.706 12.944 255.106 18.848 252.514 26.528C249.922 34.112 248.626 43.04 248.626 53.312C248.626 63.776 250.018 72.752 252.802 80.24C255.586 87.728 259.426 93.44 264.322 97.376C269.314 101.216 274.93 103.136 281.17 103.136C285.97 103.136 290.626 102.224 295.138 100.4C299.65 98.576 303.202 95.84 305.794 92.192C307.714 89.504 309.106 86.624 309.97 83.552C310.834 80.48 311.65 75.776 312.418 69.44H315.73C315.73 85.952 315.922 97.472 316.306 104H312.994C312.706 100.928 312.274 98.768 311.698 97.52C311.218 96.176 310.498 95.504 309.538 95.504C308.77 95.504 307.762 95.888 306.514 96.656C302.194 99.728 298.066 102.08 294.13 103.712C290.194 105.248 285.442 106.016 279.874 106.016C270.754 106.016 262.738 103.952 255.826 99.824C249.01 95.696 243.682 89.744 239.842 81.968C236.098 74.096 234.226 64.736 234.226 53.888C234.226 43.328 236.146 33.968 239.986 25.808C243.922 17.648 249.346 11.312 256.258 6.8C263.266 2.28799 271.186 0.031991 280.018 0.031991ZM428.694 4.928C425.238 5.11999 422.694 5.50399 421.062 6.08C419.526 6.656 418.47 7.76 417.894 9.392C417.318 11.024 417.03 13.664 417.03 17.312V88.736C417.03 92.384 417.318 95.024 417.894 96.656C418.47 98.288 419.526 99.392 421.062 99.968C422.694 100.544 425.238 100.928 428.694 101.12V104C424.662 103.712 418.518 103.568 410.262 103.568C402.486 103.568 396.39 103.712 391.974 104V101.12C395.43 100.928 397.926 100.544 399.462 99.968C401.094 99.392 402.198 98.288 402.774 96.656C403.35 95.024 403.638 92.384 403.638 88.736V54.176H356.838V88.736C356.838 92.384 357.126 95.024 357.702 96.656C358.278 98.288 359.334 99.392 360.87 99.968C362.502 100.544 365.046 100.928 368.502 101.12V104C364.086 103.712 357.99 103.568 350.214 103.568C341.958 103.568 335.814 103.712 331.782 104V101.12C335.238 100.928 337.734 100.544 339.27 99.968C340.902 99.392 342.006 98.288 342.582 96.656C343.158 95.024 343.446 92.384 343.446 88.736V17.312C343.446 13.664 343.158 11.024 342.582 9.392C342.006 7.76 340.902 6.656 339.27 6.08C337.734 5.50399 335.238 5.11999 331.782 4.928V2.048C335.814 2.336 341.958 2.47999 350.214 2.47999C357.894 2.47999 363.99 2.336 368.502 2.048V4.928C365.046 5.11999 362.502 5.50399 360.87 6.08C359.334 6.656 358.278 7.76 357.702 9.392C357.126 11.024 356.838 13.664 356.838 17.312V51.296H403.638V17.312C403.638 13.664 403.35 11.024 402.774 9.392C402.198 7.76 401.094 6.656 399.462 6.08C397.926 5.50399 395.43 5.11999 391.974 4.928V2.048C396.39 2.336 402.486 2.47999 410.262 2.47999C418.518 2.47999 424.662 2.336 428.694 2.048V4.928ZM514.495 85.568C514.495 91.04 514.831 97.184 515.503 104C508.975 103.712 497.983 103.568 482.527 103.568C464.095 103.568 450.175 103.712 440.767 104V101.12C444.223 100.928 446.719 100.544 448.255 99.968C449.887 99.392 450.991 98.288 451.567 96.656C452.143 95.024 452.431 92.384 452.431 88.736V17.312C452.431 13.664 452.143 11.024 451.567 9.392C450.991 7.76 449.887 6.656 448.255 6.08C446.719 5.50399 444.223 5.11999 440.767 4.928V2.048C450.175 2.336 464.095 2.47999 482.527 2.47999C496.639 2.47999 506.671 2.336 512.623 2.048C511.951 8.384 511.615 14.048 511.615 19.04C511.615 22.784 511.759 25.76 512.047 27.968H508.735C508.063 21.728 507.199 17.12 506.143 14.144C505.087 11.072 503.311 8.864 500.815 7.52C498.319 6.07999 494.527 5.35999 489.439 5.35999H477.487C474.031 5.35999 471.487 5.64799 469.855 6.224C468.319 6.704 467.263 7.76 466.687 9.392C466.111 11.024 465.823 13.664 465.823 17.312V51.296H475.327C478.687 51.296 481.279 50.528 483.103 48.992C484.927 47.36 486.127 45.488 486.703 43.376C487.375 41.168 487.903 38.432 488.287 35.168L488.719 32.288H492.031C491.743 36.32 491.599 40.832 491.599 45.824V52.736C491.599 57.632 491.887 64.448 492.463 73.184H489.151C489.055 72.512 488.767 70.208 488.287 66.272C487.807 62.24 486.463 59.216 484.255 57.2C482.143 55.184 479.167 54.176 475.327 54.176H465.823V88.736C465.823 92.384 466.111 95.024 466.687 96.656C467.263 98.288 468.319 99.392 469.855 99.968C471.487 100.448 474.031 100.688 477.487 100.688H487.999C493.951 100.688 498.463 99.92 501.535 98.384C504.703 96.752 507.007 94.208 508.447 90.752C509.887 87.2 510.943 82.016 511.615 75.2H514.927C514.639 77.792 514.495 81.248 514.495 85.568ZM618.949 4.928C615.589 5.11999 613.093 5.64799 611.461 6.51199C609.829 7.27999 608.725 8.62399 608.149 10.544C607.573 12.368 607.285 15.104 607.285 18.752V104.72H603.973L543.493 11.264V87.296C543.493 91.04 543.781 93.824 544.357 95.648C545.029 97.472 546.277 98.816 548.101 99.68C549.925 100.448 552.757 100.928 556.597 101.12V104C553.141 103.712 548.245 103.568 541.909 103.568C536.149 103.568 531.685 103.712 528.517 104V101.12C531.877 100.928 534.373 100.448 536.005 99.68C537.637 98.816 538.741 97.472 539.317 95.648C539.893 93.728 540.181 90.944 540.181 87.296V17.312C540.181 13.664 539.893 11.024 539.317 9.392C538.741 7.76 537.637 6.656 536.005 6.08C534.469 5.50399 531.973 5.11999 528.517 4.928V2.048C531.685 2.336 536.149 2.47999 541.909 2.47999C546.229 2.47999 549.973 2.336 553.141 2.048L603.973 80.384V18.752C603.973 15.008 603.637 12.224 602.965 10.4C602.389 8.576 601.189 7.27999 599.365 6.51199C597.541 5.64799 594.709 5.11999 590.869 4.928V2.048C594.325 2.336 599.221 2.47999 605.557 2.47999C611.317 2.47999 615.781 2.336 618.949 2.048V4.928Z" fill="#EEE9E1"/>
</svg>
