<svg width="512" height="104" viewBox="0 0 512 104" fill="none" xmlns="http://www.w3.org/2000/svg">
<path d="M81.928 1.47999C86.248 1.47999 89.848 1.336 92.728 1.048V3.928C87.928 5.07999 84.136 9.25599 81.352 16.456L47.512 103.72H46.36H45.208L10.072 13.144C7.768 7.19199 4.456 4.11999 0.136 3.928V1.048C3.976 1.336 9.112 1.47999 15.544 1.47999C23.8 1.47999 29.944 1.336 33.976 1.048V3.928C30.328 4.11999 27.688 4.59999 26.056 5.368C24.52 6.04 23.752 7.336 23.752 9.256C23.752 10.888 24.328 13.144 25.48 16.024L51.544 85.288L75.016 24.376C76.936 19.192 77.896 15.256 77.896 12.568C77.896 9.592 76.84 7.43199 74.728 6.08799C72.712 4.74399 69.592 4.024 65.368 3.928V1.048C70.84 1.336 76.36 1.47999 81.928 1.47999ZM134.471 3.928C131.015 4.11999 128.471 4.50399 126.839 5.08C125.303 5.656 124.247 6.76 123.671 8.392C123.095 10.024 122.807 12.664 122.807 16.312V87.736C122.807 91.384 123.095 94.024 123.671 95.656C124.247 97.288 125.303 98.392 126.839 98.968C128.471 99.544 131.015 99.928 134.471 100.12V103C130.055 102.712 123.959 102.568 116.183 102.568C107.927 102.568 101.783 102.712 97.7511 103V100.12C101.207 99.928 103.703 99.544 105.239 98.968C106.871 98.392 107.975 97.288 108.551 95.656C109.127 94.024 109.415 91.384 109.415 87.736V16.312C109.415 12.664 109.127 10.024 108.551 8.392C107.975 6.76 106.871 5.656 105.239 5.08C103.703 4.50399 101.207 4.11999 97.7511 3.928V1.048C101.783 1.336 107.927 1.47999 116.183 1.47999C123.863 1.47999 129.959 1.336 134.471 1.048V3.928ZM222.148 90.904C224.452 96.856 227.764 99.928 232.084 100.12V103C228.244 102.712 223.108 102.568 216.676 102.568C208.42 102.568 202.276 102.712 198.244 103V100.12C201.892 99.928 204.484 99.496 206.02 98.824C207.652 98.056 208.468 96.712 208.468 94.792C208.468 93.16 207.892 90.904 206.74 88.024L197.956 64.408H163.108L157.204 79.672C155.284 84.856 154.324 88.792 154.324 91.48C154.324 94.456 155.332 96.616 157.348 97.96C159.46 99.304 162.628 100.024 166.852 100.12V103C161.38 102.712 155.86 102.568 150.292 102.568C145.972 102.568 142.372 102.712 139.492 103V100.12C144.292 98.968 148.084 94.792 150.868 87.592L184.708 0.327991H187.012L222.148 90.904ZM196.804 61.528L180.676 18.472L164.26 61.528H196.804ZM324.871 3.928C321.511 4.11999 319.015 4.64799 317.383 5.51199C315.751 6.27999 314.647 7.62399 314.071 9.54399C313.495 11.368 313.207 14.104 313.207 17.752V103.72H309.895L249.415 10.264V86.296C249.415 90.04 249.703 92.824 250.279 94.648C250.951 96.472 252.199 97.816 254.023 98.68C255.847 99.448 258.679 99.928 262.519 100.12V103C259.063 102.712 254.167 102.568 247.831 102.568C242.071 102.568 237.607 102.712 234.439 103V100.12C237.799 99.928 240.295 99.448 241.927 98.68C243.559 97.816 244.663 96.472 245.239 94.648C245.815 92.728 246.103 89.944 246.103 86.296V16.312C246.103 12.664 245.815 10.024 245.239 8.392C244.663 6.76 243.559 5.656 241.927 5.08C240.391 4.50399 237.895 4.11999 234.439 3.928V1.048C237.607 1.336 242.071 1.47999 247.831 1.47999C252.151 1.47999 255.895 1.336 259.063 1.048L309.895 79.384V17.752C309.895 14.008 309.559 11.224 308.887 9.39999C308.311 7.576 307.111 6.27999 305.287 5.51199C303.463 4.64799 300.631 4.11999 296.791 3.928V1.048C300.247 1.336 305.143 1.47999 311.479 1.47999C317.239 1.47999 321.703 1.336 324.871 1.048V3.928ZM372.831 3.928C369.375 4.11999 366.831 4.50399 365.199 5.08C363.663 5.656 362.607 6.76 362.031 8.392C361.455 10.024 361.167 12.664 361.167 16.312V87.736C361.167 91.384 361.455 94.024 362.031 95.656C362.607 97.288 363.663 98.392 365.199 98.968C366.831 99.544 369.375 99.928 372.831 100.12V103C368.415 102.712 362.319 102.568 354.543 102.568C346.287 102.568 340.143 102.712 336.111 103V100.12C339.567 99.928 342.063 99.544 343.599 98.968C345.231 98.392 346.335 97.288 346.911 95.656C347.487 94.024 347.775 91.384 347.775 87.736V16.312C347.775 12.664 347.487 10.024 346.911 8.392C346.335 6.76 345.231 5.656 343.599 5.08C342.063 4.50399 339.567 4.11999 336.111 3.928V1.048C340.143 1.336 346.287 1.47999 354.543 1.47999C362.223 1.47999 368.319 1.336 372.831 1.048V3.928ZM464.107 1.048C463.435 7.864 463.099 14.008 463.099 19.48C463.099 24.28 463.243 28.216 463.531 31.288H460.219C459.451 23.896 458.491 18.424 457.339 14.872C456.187 11.224 454.171 8.58399 451.291 6.95199C448.411 5.22399 443.995 4.35999 438.043 4.35999H430.267V86.296C430.267 90.328 430.651 93.256 431.419 95.08C432.187 96.904 433.531 98.152 435.451 98.824C437.371 99.496 440.491 99.928 444.811 100.12V103C439.819 102.712 432.763 102.568 423.643 102.568C414.043 102.568 406.939 102.712 402.331 103V100.12C406.651 99.928 409.771 99.496 411.691 98.824C413.611 98.152 414.955 96.904 415.723 95.08C416.491 93.256 416.875 90.328 416.875 86.296V4.35999H409.099C403.147 4.35999 398.731 5.22399 395.851 6.95199C392.971 8.58399 390.955 11.224 389.803 14.872C388.651 18.424 387.691 23.896 386.923 31.288H383.611C383.899 28.216 384.043 24.28 384.043 19.48C384.043 14.008 383.707 7.864 383.035 1.048C391.003 1.336 404.539 1.47999 423.643 1.47999C442.651 1.47999 456.139 1.336 464.107 1.048ZM511.065 3.928C507.609 4.11999 505.065 4.50399 503.433 5.08C501.897 5.656 500.841 6.76 500.265 8.392C499.689 10.024 499.401 12.664 499.401 16.312V87.736C499.401 91.384 499.689 94.024 500.265 95.656C500.841 97.288 501.897 98.392 503.433 98.968C505.065 99.544 507.609 99.928 511.065 100.12V103C506.649 102.712 500.553 102.568 492.777 102.568C484.521 102.568 478.377 102.712 474.345 103V100.12C477.801 99.928 480.297 99.544 481.833 98.968C483.465 98.392 484.569 97.288 485.145 95.656C485.721 94.024 486.009 91.384 486.009 87.736V16.312C486.009 12.664 485.721 10.024 485.145 8.392C484.569 6.76 483.465 5.656 481.833 5.08C480.297 4.50399 477.801 4.11999 474.345 3.928V1.048C478.377 1.336 484.521 1.47999 492.777 1.47999C500.457 1.47999 506.553 1.336 511.065 1.048V3.928Z" fill="#EEE9E1"/>
</svg>
