<svg width="475" height="107" viewBox="0 0 475 107" fill="none" xmlns="http://www.w3.org/2000/svg">
<path d="M39.36 2.048C56.352 2.048 69.072 6.32 77.52 14.864C85.968 23.312 90.192 35.648 90.192 51.872C90.192 62.336 88.128 71.504 84 79.376C79.872 87.248 73.872 93.344 66 97.664C58.224 101.888 48.912 104 38.064 104L29.712 103.856C24.336 103.664 20.4 103.568 17.904 103.568C10.032 103.568 4.08 103.712 0.0480005 104V101.12C3.504 100.928 6 100.544 7.536 99.968C9.168 99.392 10.272 98.288 10.848 96.656C11.424 95.024 11.712 92.384 11.712 88.736V17.312C11.712 13.664 11.424 11.024 10.848 9.392C10.272 7.76 9.168 6.656 7.536 6.08C6 5.50399 3.504 5.11999 0.0480005 4.928V2.048C3.408 2.336 8.064 2.47999 14.016 2.47999L26.256 2.336C32.784 2.144 37.152 2.048 39.36 2.048ZM35.76 4.63999C32.784 4.63999 30.528 4.97599 28.992 5.648C27.552 6.31999 26.544 7.51999 25.968 9.24799C25.392 10.976 25.104 13.568 25.104 17.024V89.024C25.104 92.48 25.392 95.072 25.968 96.8C26.544 98.528 27.552 99.728 28.992 100.4C30.528 101.072 32.832 101.408 35.904 101.408C46.08 101.408 54.096 99.584 59.952 95.936C65.808 92.192 69.888 86.768 72.192 79.664C74.592 72.56 75.792 63.488 75.792 52.448C75.792 41.408 74.496 32.432 71.904 25.52C69.312 18.512 65.088 13.28 59.232 9.82399C53.472 6.36799 45.648 4.63999 35.76 4.63999ZM151.487 0.031991C160.607 0.031991 168.575 2.09599 175.391 6.224C182.303 10.352 187.631 16.352 191.375 24.224C195.215 32 197.135 41.312 197.135 52.16C197.135 62.72 195.167 72.08 191.231 80.24C187.391 88.4 181.967 94.736 174.959 99.248C168.047 103.76 160.175 106.016 151.343 106.016C142.223 106.016 134.207 103.952 127.295 99.824C120.479 95.696 115.151 89.744 111.311 81.968C107.567 74.096 105.695 64.736 105.695 53.888C105.695 43.328 107.615 33.968 111.455 25.808C115.391 17.648 120.815 11.312 127.727 6.8C134.735 2.28799 142.655 0.031991 151.487 0.031991ZM150.911 2.62399C144.767 2.62399 139.343 4.78399 134.639 9.10399C130.031 13.328 126.431 19.28 123.839 26.96C121.343 34.64 120.095 43.424 120.095 53.312C120.095 63.296 121.487 72.08 124.271 79.664C127.151 87.248 130.991 93.104 135.791 97.232C140.591 101.36 145.967 103.424 151.919 103.424C158.063 103.424 163.439 101.312 168.047 97.088C172.751 92.768 176.351 86.768 178.847 79.088C181.439 71.408 182.734 62.624 182.734 52.736C182.734 42.752 181.295 33.968 178.415 26.384C175.631 18.8 171.839 12.944 167.039 8.816C162.239 4.68799 156.863 2.62399 150.911 2.62399ZM258.221 0.031991C267.341 0.031991 275.309 2.09599 282.125 6.224C289.037 10.352 294.365 16.352 298.109 24.224C301.949 32 303.869 41.312 303.869 52.16C303.869 62.72 301.901 72.08 297.965 80.24C294.125 88.4 288.701 94.736 281.693 99.248C274.781 103.76 266.909 106.016 258.077 106.016C248.957 106.016 240.941 103.952 234.029 99.824C227.213 95.696 221.885 89.744 218.045 81.968C214.301 74.096 212.429 64.736 212.429 53.888C212.429 43.328 214.349 33.968 218.189 25.808C222.125 17.648 227.549 11.312 234.461 6.8C241.469 2.28799 249.389 0.031991 258.221 0.031991ZM257.645 2.62399C251.501 2.62399 246.077 4.78399 241.373 9.10399C236.765 13.328 233.165 19.28 230.573 26.96C228.077 34.64 226.829 43.424 226.829 53.312C226.829 63.296 228.221 72.08 231.005 79.664C233.885 87.248 237.725 93.104 242.525 97.232C247.325 101.36 252.701 103.424 258.653 103.424C264.797 103.424 270.173 101.312 274.781 97.088C279.485 92.768 283.085 86.768 285.581 79.088C288.173 71.408 289.469 62.624 289.469 52.736C289.469 42.752 288.029 33.968 285.149 26.384C282.365 18.8 278.573 12.944 273.773 8.816C268.973 4.68799 263.597 2.62399 257.645 2.62399ZM405.446 96.8C403.238 100.064 401.03 102.416 398.822 103.856C396.614 105.296 393.686 106.016 390.038 106.016C386.102 106.016 382.838 104.864 380.246 102.56C377.75 100.256 375.878 96.224 374.63 90.464L371.462 76.064C370.31 71.072 369.206 67.232 368.15 64.544C367.19 61.856 365.702 59.696 363.686 58.064C361.67 56.432 358.838 55.616 355.19 55.616H341.51V88.736C341.51 92.384 341.798 95.024 342.374 96.656C342.95 98.288 344.006 99.392 345.542 99.968C347.174 100.544 349.718 100.928 353.174 101.12V104C348.758 103.712 342.662 103.568 334.886 103.568C326.63 103.568 320.486 103.712 316.454 104V101.12C319.91 100.928 322.406 100.544 323.942 99.968C325.574 99.392 326.678 98.288 327.254 96.656C327.83 95.024 328.118 92.384 328.118 88.736V17.312C328.118 13.664 327.83 11.024 327.254 9.392C326.678 7.76 325.574 6.656 323.942 6.08C322.406 5.50399 319.91 5.11999 316.454 4.928V2.048C320.486 2.336 326.342 2.47999 334.022 2.47999L349.574 2.336C351.398 2.24 353.462 2.192 355.766 2.192C366.902 2.192 375.446 4.544 381.398 9.24799C387.446 13.856 390.47 19.856 390.47 27.248C390.47 30.992 389.558 34.784 387.734 38.624C386.006 42.368 383.03 45.776 378.806 48.848C374.678 51.824 369.254 53.84 362.534 54.896L364.262 55.184C370.598 56.24 375.206 58.16 378.086 60.944C380.966 63.728 383.078 68.144 384.422 74.192L388.022 88.88C388.982 93.296 389.99 96.368 391.046 98.096C392.102 99.824 393.542 100.688 395.366 100.688C396.998 100.688 398.342 100.256 399.398 99.392C400.55 98.528 401.846 97.136 403.286 95.216L405.446 96.8ZM352.166 4.928C349.19 4.928 346.934 5.264 345.398 5.93599C343.958 6.608 342.95 7.808 342.374 9.536C341.798 11.264 341.51 13.856 341.51 17.312V52.736H351.158C360.662 52.736 367.19 50.624 370.742 46.4C374.294 42.176 376.07 36.32 376.07 28.832C376.07 20.96 374.198 15.008 370.454 10.976C366.71 6.944 360.614 4.928 352.166 4.928ZM440.645 0.463994C444.869 0.463994 448.181 0.943994 450.581 1.90399C453.077 2.76799 455.621 4.06399 458.213 5.79199C460.325 7.13599 461.957 7.80799 463.109 7.80799C463.973 7.80799 464.645 7.32799 465.125 6.368C465.605 5.312 465.989 3.68 466.277 1.472H469.589C469.109 7.04 468.869 16.832 468.869 30.848H465.557C464.981 23.072 462.725 16.544 458.789 11.264C454.949 5.88799 449.333 3.19999 441.941 3.19999C436.757 3.19999 432.533 4.78399 429.269 7.95199C426.005 11.024 424.373 15.008 424.373 19.904C424.373 23.552 425.189 26.72 426.821 29.408C428.549 32.096 430.709 34.4 433.301 36.32C435.893 38.24 439.589 40.688 444.389 43.664L448.565 46.256C454.613 50 459.365 53.312 462.821 56.192C466.373 58.976 469.205 62.192 471.317 65.84C473.429 69.488 474.485 73.76 474.485 78.656C474.485 87.392 471.605 94.16 465.845 98.96C460.085 103.664 452.789 106.016 443.957 106.016C439.349 106.016 435.557 105.536 432.581 104.576C429.701 103.616 426.917 102.32 424.229 100.688C422.117 99.344 420.485 98.672 419.333 98.672C418.469 98.672 417.797 99.2 417.317 100.256C416.837 101.216 416.453 102.8 416.165 105.008H412.853C413.237 99.728 413.429 88.208 413.429 70.448H416.741C417.413 80.144 419.813 88.016 423.941 94.064C428.069 100.112 434.405 103.136 442.949 103.136C448.133 103.136 452.549 101.552 456.197 98.384C459.845 95.12 461.669 90.32 461.669 83.984C461.669 78.608 459.845 74.048 456.197 70.304C452.645 66.56 446.981 62.336 439.205 57.632C433.541 54.176 428.933 51.104 425.381 48.416C421.925 45.728 419.093 42.512 416.885 38.768C414.677 34.928 413.573 30.464 413.573 25.376C413.573 17.312 416.165 11.168 421.349 6.944C426.533 2.62399 432.965 0.463994 440.645 0.463994Z" fill="#EEE9E1"/>
</svg>
